<?xml version="1.0" encoding="UTF-8" standalone="no"?>
<svg
   version="1.1"
   id="svg2"
   xml:space="preserve"
   viewBox="0 0 476.12518 344.896"
   xmlns="http://www.w3.org/2000/svg"
   xmlns:svg="http://www.w3.org/2000/svg"
   xmlns:rdf="http://www.w3.org/1999/02/22-rdf-syntax-ns#"
   xmlns:cc="http://creativecommons.org/ns#"
   xmlns:dc="http://purl.org/dc/elements/1.1/"><metadata
     id="metadata8"><rdf:RDF><cc:Work
         rdf:about=""><dc:format>image/svg+xml</dc:format><dc:type
           rdf:resource="http://purl.org/dc/dcmitype/StillImage" /></cc:Work></rdf:RDF></metadata><defs
     id="defs6" /><g
     id="g10"
     transform="matrix(1.3333333,0,0,-1.3333333,-95.270797,467.83865)"><g
       id="g12"
       transform="scale(0.1)"><path
         d="M 3240.06,3137.77 H 1759.94 v 371.02 h 1480.12 v -371.02"
         style="fill:#ed1e24;fill-opacity:1;fill-rule:nonzero;stroke:none"
         id="path14" /><path
         d="M 3240.06,2770.62 H 1759.94 v 371.03 h 1480.12 v -371.03"
         style="fill:#a7e1cf;fill-opacity:1;fill-rule:nonzero;stroke:none"
         id="path16" /><path
         d="M 3240.06,2399.8 H 1759.94 v 371.03 H 3240.06 V 2399.8"
         style="fill:#5ac7bd;fill-opacity:1;fill-rule:nonzero;stroke:none"
         id="path18" /><path
         d="M 3240.06,2032.66 H 1759.94 v 371.03 h 1480.12 v -371.03"
         style="fill:#152530;fill-opacity:1;fill-rule:nonzero;stroke:none"
         id="path20" /><path
         d="m 975.438,1331.51 v -64.13 h 86.542 v -29.31 h -86.542 v -91 h -35.907 v 213.75 H 1084.1 v -29.31 H 975.438"
         style="fill:#fff;fill-opacity:1;fill-rule:nonzero;stroke:none"
         id="path22" /><path
         d="m 1202.71,1179.75 c 2.56,-2.14 5.13,-3.36 16.02,-3.36 h 56.42 c 10.9,-0.31 13.46,1.22 16.03,3.36 3.53,3.05 8.01,12.52 8.01,74.2 0,61.68 -4.48,71.15 -8.01,74.2 -2.57,2.14 -5.13,3.36 -16.03,3.36 h -56.42 c -10.89,0 -13.46,-1.22 -16.02,-3.36 -3.53,-3.05 -8.02,-12.52 -8.02,-74.2 0,-61.68 4.49,-71.15 8.02,-74.2 z m 76.28,181.07 c 21.16,0 29.18,-2.13 36.55,-8.54 12.5,-10.69 20.19,-26.27 20.19,-98.33 0,-72.07 -7.69,-87.64 -20.19,-98.33 -7.37,-6.41 -15.39,-8.55 -36.55,-8.55 h -64.1 c -21.16,0 -29.17,2.14 -36.55,8.55 -12.49,10.69 -20.19,26.26 -20.19,98.33 0,72.06 7.7,87.64 20.19,98.33 7.38,6.41 15.39,8.54 36.55,8.54 h 64.1"
         style="fill:#fff;fill-opacity:1;fill-rule:nonzero;stroke:none"
         id="path24" /><path
         d="m 1603.08,1235.93 c 0,-53.74 -4.81,-64.73 -16.67,-76.03 -10.26,-9.77 -25.64,-12.83 -55.14,-12.83 h -32.69 c -29.17,0 -44.24,3.36 -53.85,12.52 -11.86,11.3 -16.35,21.99 -16.35,76.34 v 124.89 h 35.9 V 1228.6 c 0,-38.78 3.2,-42.14 7.7,-46.41 3.52,-3.36 9.61,-4.89 34.29,-4.89 h 20.19 c 24.05,0 29.82,1.22 33.66,4.89 4.81,4.58 7.06,7.02 7.06,46.41 v 132.22 h 35.9 v -124.89"
         style="fill:#fff;fill-opacity:1;fill-rule:nonzero;stroke:none"
         id="path26" /><path
         d="m 1879.08,1147.07 h -36.54 c -9.3,0 -12.82,1.83 -16.67,10.08 l -85.59,157.26 h -4.8 v -167.34 h -34.94 v 213.75 h 39.74 c 9.3,0 12.51,-1.83 16.35,-10.07 l 82.71,-149.93 h 4.8 v 160 h 34.94 v -213.75"
         style="fill:#fff;fill-opacity:1;fill-rule:nonzero;stroke:none"
         id="path28" /><path
         d="m 2101.23,1324.79 c -7.06,6.11 -13.47,6.72 -27.25,6.72 h -61.54 v -155.12 h 61.54 c 13.78,0 20.84,0.91 27.25,6.71 8.66,7.64 12.5,22.3 12.5,70.54 0,49.16 -3.84,63.51 -12.5,71.15 z m -27.25,36.03 c 27.25,0 41.99,-4.27 54.5,-14.96 14.74,-12.82 21.8,-39.39 21.8,-91.91 0,-52.52 -7.06,-79.09 -21.8,-91.92 -12.51,-10.68 -27.25,-14.96 -54.5,-14.96 h -97.44 v 213.75 h 97.44"
         style="fill:#fff;fill-opacity:1;fill-rule:nonzero;stroke:none"
         id="path30" /><path
         d="m 2393.25,1147.07 h -153.22 v 213.75 h 153.22 v -29.31 h -117.31 v -58.94 h 97.13 v -29.31 h -97.13 v -66.87 h 117.31 v -29.32"
         style="fill:#fff;fill-opacity:1;fill-rule:nonzero;stroke:none"
         id="path32" /><path
         d="m 2590.4,1263.41 c 9.29,0 12.18,1.53 13.78,3.05 2.89,2.75 7.05,9.47 7.05,31.46 0,21.98 -3.85,28.4 -6.73,31.15 -1.6,1.52 -4.81,2.44 -14.1,2.44 h -74.37 v -68.1 z m 11.22,-32.37 c -4.17,3.36 -10.58,4.28 -23.4,4.28 h -62.19 v -88.25 h -35.9 v 213.75 h 120.85 c 14.74,0 25.32,-2.44 32.05,-8.85 8.66,-8.24 14.42,-19.85 14.42,-51.92 0,-37.55 -10.89,-48.24 -36.54,-51.6 v -0.61 c 23.73,-4.28 33.03,-9.77 34.3,-40.92 1.29,-29.92 2.24,-48.25 3.53,-59.85 h -35.9 c -2.25,14.35 -3.53,34.51 -4.17,58.94 -0.32,17.1 -2.56,21.37 -7.05,25.03"
         style="fill:#fff;fill-opacity:1;fill-rule:nonzero;stroke:none"
         id="path34" /><path
         d="m 2891.72,1156.84 c -6.73,-6.41 -16.67,-9.77 -34.62,-9.77 h -75.33 c -17.62,0 -27.88,2.14 -34.94,8.86 -9.3,8.85 -12.18,19.23 -12.82,58.32 h 35.58 c 0.64,-26.57 1.6,-32.06 4.17,-34.5 1.92,-1.84 4.48,-3.36 14.1,-3.36 h 63.16 c 9.29,0 12.17,0.91 14.74,3.36 2.88,2.75 3.53,10.99 3.53,29 0,15.58 -0.33,20.46 -3.85,23.82 -2.57,2.44 -5.78,3.36 -14.75,3.97 l -70.52,6.11 c -16.35,1.52 -25.97,4.58 -32.69,10.99 -8.98,8.55 -10.58,18.63 -10.58,46.72 0,27.49 2.88,40.92 13.14,50.69 6.73,6.42 16.99,9.77 33.98,9.77 h 69.23 c 17.64,0 27.9,-2.13 34.94,-8.85 9.3,-8.85 11.54,-18.63 12.83,-56.8 h -35.58 c -0.65,25.04 -1.61,30.54 -4.18,32.98 -1.91,1.83 -4.48,3.36 -14.1,3.36 h -56.73 c -8.98,0 -11.86,-0.92 -14.43,-3.36 -2.88,-2.75 -3.52,-11.3 -3.52,-27.48 0,-14.97 0.31,-20.16 3.84,-23.52 2.57,-2.44 5.78,-2.75 14.74,-3.66 l 70.53,-6.11 c 15.39,-1.22 25.32,-4.27 32.05,-10.69 8.66,-8.24 11.22,-18.62 11.22,-47.63 0,-29.62 -2.88,-42.44 -13.14,-52.22"
         style="fill:#fff;fill-opacity:1;fill-rule:nonzero;stroke:none"
         id="path36" /><path
         d="m 3147.85,1331.51 v -64.13 h 86.55 v -29.31 h -86.55 v -91 h -35.9 v 213.75 h 144.57 v -29.31 h -108.67"
         style="fill:#fff;fill-opacity:1;fill-rule:nonzero;stroke:none"
         id="path38" /><path
         d="m 3513.28,1235.93 c 0,-53.74 -4.81,-64.73 -16.67,-76.03 -10.26,-9.77 -25.64,-12.83 -55.14,-12.83 h -32.69 c -29.17,0 -44.24,3.36 -53.85,12.52 -11.86,11.3 -16.35,21.99 -16.35,76.34 v 124.89 h 35.9 V 1228.6 c 0,-38.78 3.2,-42.14 7.7,-46.41 3.52,-3.36 9.61,-4.89 34.29,-4.89 h 20.2 c 24.04,0 29.81,1.22 33.65,4.89 4.81,4.58 7.06,7.02 7.06,46.41 v 132.22 h 35.9 v -124.89"
         style="fill:#fff;fill-opacity:1;fill-rule:nonzero;stroke:none"
         id="path40" /><path
         d="m 3789.28,1147.07 h -36.54 c -9.3,0 -12.82,1.83 -16.67,10.08 l -85.59,157.26 h -4.81 v -167.34 h -34.93 v 213.75 h 39.74 c 9.3,0 12.51,-1.83 16.35,-10.07 l 82.7,-149.93 h 4.81 v 160 h 34.94 v -213.75"
         style="fill:#fff;fill-opacity:1;fill-rule:nonzero;stroke:none"
         id="path42" /><path
         d="m 4011.43,1324.79 c -7.05,6.11 -13.47,6.72 -27.25,6.72 h -61.55 v -155.12 h 61.55 c 13.78,0 20.84,0.91 27.25,6.71 8.65,7.64 12.5,22.3 12.5,70.54 0,49.16 -3.85,63.51 -12.5,71.15 z m -27.25,36.03 c 27.25,0 41.99,-4.27 54.5,-14.96 14.74,-12.82 21.79,-39.39 21.79,-91.91 0,-52.52 -7.05,-79.09 -21.79,-91.92 -12.51,-10.68 -27.25,-14.96 -54.5,-14.96 h -97.44 v 213.75 h 97.44"
         style="fill:#fff;fill-opacity:1;fill-rule:nonzero;stroke:none"
         id="path44" /></g></g></svg>
